<svg xmlns="http://www.w3.org/2000/svg" version="1.1" viewBox="-5.0 -10.0 110.0 135.0">
 <path d="m90.375 88.812-24.289-29.875-10.184-30.223c-0.47656-1.418-1.8516-2.3711-3.4219-2.3711-0.96484 0-1.8359 0.36328-2.4844 0.94922-0.64453-0.58594-1.5195-0.94922-2.4844-0.94922-1.5703 0-2.9453 0.95312-3.4219 2.3711l-10.184 30.223-24.289 29.875c-0.26953 0.33203-0.32422 0.78906-0.14063 1.1797 0.18359 0.38672 0.57422 0.63281 1.0039 0.63281h21.582c0.40625 0 0.78125-0.22266 0.97266-0.57812l12.016-21.953 1.8594-0.76953c1.293-0.53516 2.3516-1.4102 3.082-2.4805 0.73047 1.0703 1.7891 1.9453 3.082 2.4805l1.8594 0.76953 12.016 21.953c0.19531 0.35547 0.57031 0.57812 0.97266 0.57812h21.582c0.42969 0 0.82031-0.24609 1.0039-0.63281 0.18359-0.38672 0.12891-0.84375-0.14062-1.1797zm-44.309-23.543-2.2188 0.91797c-0.23438 0.097656-0.42969 0.26953-0.55078 0.49219l-11.887 21.719h-18.59l22.941-28.219c0.085937-0.10156 0.14844-0.21875 0.19141-0.34766l10.246-30.414c0.16797-0.50391 0.71094-0.85547 1.3203-0.85547 0.75781 0 1.3711 0.53125 1.3711 1.1836v6.8828l-0.23047 0.070313c-2.0508 0.60938-3.5859 2.3711-3.9102 4.4883l-1.6406 10.781c-0.089844 0.60547 0.32422 1.1719 0.93359 1.2656 0.054687 0.007813 0.11328 0.011719 0.16797 0.011719 0.53906 0 1.0117-0.39453 1.0977-0.94531l1.6406-10.777c0.17188-1.1289 0.91797-2.0859 1.9453-2.543v22.305c0 1.707-1.1094 3.2695-2.8242 3.9766zm22.523 23.133-11.887-21.719c-0.12109-0.22266-0.31641-0.39844-0.55078-0.49219l-2.2188-0.91797c-1.7148-0.71094-2.8242-2.2695-2.8242-3.9766v-22.305c1.0273 0.45703 1.7734 1.4141 1.9453 2.543l1.6406 10.781c0.082032 0.55078 0.55859 0.94531 1.0977 0.94531 0.054687 0 0.11328-0.003907 0.16797-0.011719 0.60547-0.09375 1.0234-0.66016 0.93359-1.2656l-1.6406-10.781c-0.32422-2.1172-1.8555-3.8789-3.9102-4.4883l-0.23047-0.070313v-6.8828c0-0.65234 0.61719-1.1836 1.3711-1.1836 0.60547 0 1.1484 0.35156 1.3203 0.85547l10.246 30.414c0.042969 0.125 0.10547 0.24219 0.19141 0.34766l22.941 28.219h-18.59zm-19.699-67.043v-10.871c0-0.61328 0.49609-1.1094 1.1094-1.1094s1.1094 0.49609 1.1094 1.1094v10.871c0 0.61328-0.49609 1.1094-1.1094 1.1094s-1.1094-0.49609-1.1094-1.1094zm-16.059-5.9727c-0.30859-0.53125-0.125-1.2109 0.40625-1.5156 0.53125-0.30859 1.2109-0.125 1.5156 0.40625l5.4375 9.4141c0.30859 0.53125 0.125 1.2109-0.40625 1.5156-0.17578 0.10156-0.36719 0.14844-0.55469 0.14844-0.38281 0-0.75781-0.19922-0.96484-0.55469l-5.4375-9.4141zm-11.867 10.754c0.30859-0.53125 0.98828-0.71094 1.5156-0.40625l9.4141 5.4375c0.53125 0.30859 0.71484 0.98438 0.40625 1.5156-0.20703 0.35547-0.57812 0.55469-0.96484 0.55469-0.1875 0-0.37891-0.046876-0.55469-0.14844l-9.4141-5.4375c-0.53125-0.30859-0.71484-0.98438-0.40625-1.5156zm46.734 26.98c0.30859-0.53125 0.98438-0.71094 1.5156-0.40625l9.4141 5.4375c0.53125 0.30859 0.71484 0.98438 0.40625 1.5156-0.20703 0.35547-0.57812 0.55469-0.96484 0.55469-0.1875 0-0.37891-0.046875-0.55469-0.14844l-9.4141-5.4375c-0.53125-0.30859-0.71484-0.98438-0.40625-1.5156zm-51.223-10.219c0-0.61328 0.49609-1.1094 1.1094-1.1094h10.871c0.61328 0 1.1094 0.49609 1.1094 1.1094 0 0.61328-0.49609 1.1094-1.1094 1.1094h-10.871c-0.61328 0-1.1094-0.49609-1.1094-1.1094zm55.074-1.1094h10.871c0.61328 0 1.1094 0.49609 1.1094 1.1094 0 0.61328-0.49609 1.1094-1.1094 1.1094h-10.871c-0.61328 0-1.1094-0.49609-1.1094-1.1094 0-0.61328 0.49609-1.1094 1.1094-1.1094zm-39.242 11.328c0.30859 0.53125 0.125 1.2109-0.40625 1.5156l-9.4141 5.4375c-0.17578 0.10156-0.36719 0.14844-0.55469 0.14844-0.38281 0-0.75781-0.19922-0.96484-0.55469-0.30859-0.53125-0.125-1.2109 0.40625-1.5156l9.4141-5.4375c0.53125-0.30469 1.2109-0.125 1.5156 0.40625zm35.395-20.434c-0.30859-0.53125-0.125-1.2109 0.40625-1.5156l9.4141-5.4375c0.53125-0.30469 1.2109-0.125 1.5156 0.40625 0.30859 0.53125 0.125 1.2109-0.40625 1.5156l-9.4141 5.4375c-0.17578 0.10156-0.36719 0.14844-0.55469 0.14844-0.38281 0-0.75781-0.19922-0.96484-0.55469zm-7.8867-8.9961 5.4375-9.4141c0.30859-0.53125 0.98828-0.71484 1.5156-0.40625 0.53125 0.30859 0.71484 0.98438 0.40625 1.5156l-5.4375 9.4141c-0.20703 0.35547-0.57812 0.55469-0.96484 0.55469-0.1875 0-0.37891-0.046875-0.55469-0.14844-0.53125-0.30859-0.71484-0.98438-0.40625-1.5156z"/>
</svg>